# xmcd
#
# Track frame offsets: 
#        150
#        8611
#        25666
#        38172
#        52415
#        72645
#        91514
#        105758
#        121357
#        131455
#        164013
#        185707
#        200149
#
# Disc length: 3052 seconds
#
# Revision: 1
# Processed by: cddbd v1.5.2PL0 Copyright (c) Steve Scherf et al.
# Submitted via: ExactAudioCopy v1.1
#
DISCID=b00bea0d
DTITLE=Public Enemy - The Evil Empire Of Everything
DYEAR=2012
DGENRE=Rap
TTITLE0=The Evil Empire Of Everything
TTITLE1=Don't Give Up The Fight  (feat.. Ziggy Marley)
TTITLE2=1 (PEace)
TTITLE3=2 resPEct (feat.. DAVY DMX)
TTITLE4=Beyond Trayon (feat. NME SON)
TTITLE5=Everything (feat. Gerald Albright and Sheila Brody)
TTITLE6=31 Flavors (feat. Rampage)
TTITLE7=Riotstarted! (feat. Tom Morello and Henry Rollins)
TTITLE8=Notice (Know This)
TTITLE9=ICEbreaker (feat..The Impossebulls, Kyle Jason, Sekreto, and Tru
TTITLE9=e Mathematics)
TTITLE10=Fame
TTITLE11=Broke Diva
TTITLE12=Say It Like It Really Is
EXTD=
EXTT0=
EXTT1=
EXTT2=
EXTT3=
EXTT4=
EXTT5=
EXTT6=
EXTT7=
EXTT8=
EXTT9=
EXTT10=
EXTT11=
EXTT12=
PLAYORDER=
